<svg width="25" height="24" viewBox="0 0 25 24" fill="none" xmlns="http://www.w3.org/2000/svg">
<g clip-path="url(#clip0_78_267)">
<path fill-rule="evenodd" clip-rule="evenodd" d="M4.7998 12C4.79995 10.4605 5.24432 8.95364 6.07959 7.66038C6.91487 6.36712 8.10557 5.34234 9.50881 4.70901C10.9121 4.07568 12.4682 3.8607 13.9906 4.08987C15.513 4.31904 16.937 4.98262 18.0916 6.00099C19.2462 7.01936 20.0824 8.34926 20.5 9.83111C20.9175 11.313 20.8986 12.8838 20.4455 14.3552C19.9924 15.8265 19.1244 17.1359 17.9456 18.1262C16.7668 19.1165 15.3273 19.7456 13.7998 19.938V14H15.7998C16.065 14 16.3194 13.8946 16.5069 13.7071C16.6944 13.5196 16.7998 13.2652 16.7998 13C16.7998 12.7348 16.6944 12.4804 16.5069 12.2929C16.3194 12.1054 16.065 12 15.7998 12H13.7998V10C13.7998 9.73478 13.9052 9.48043 14.0927 9.29289C14.2802 9.10536 14.5346 9 14.7998 9H15.2998C15.565 9 15.8194 8.89464 16.0069 8.70711C16.1944 8.51957 16.2998 8.26522 16.2998 8C16.2998 7.73478 16.1944 7.48043 16.0069 7.29289C15.8194 7.10536 15.565 7 15.2998 7H14.7998C14.0042 7 13.2411 7.31607 12.6785 7.87868C12.1159 8.44129 11.7998 9.20435 11.7998 10V12H9.7998C9.53459 12 9.28023 12.1054 9.0927 12.2929C8.90516 12.4804 8.7998 12.7348 8.7998 13C8.7998 13.2652 8.90516 13.5196 9.0927 13.7071C9.28023 13.8946 9.53459 14 9.7998 14H11.7998V19.938C9.8665 19.6942 8.08862 18.7533 6.79981 17.2917C5.51099 15.8302 4.79984 13.9486 4.7998 12ZM12.7998 22C18.3228 22 22.7998 17.523 22.7998 12C22.7998 6.477 18.3228 2 12.7998 2C7.2768 2 2.7998 6.477 2.7998 12C2.7998 17.523 7.2768 22 12.7998 22Z" fill="white"/>
</g>
<defs>
<clipPath id="clip0_78_267">
<rect width="24" height="24" fill="white" transform="translate(0.799805)"/>
</clipPath>
</defs>
</svg>
