<svg width="25" height="24" viewBox="0 0 25 24" fill="none" xmlns="http://www.w3.org/2000/svg">
<path d="M22.5498 6.75V17.25C22.5498 17.8467 22.3128 18.419 21.8908 18.841C21.4688 19.2629 20.8965 19.5 20.2998 19.5H5.2998C4.70307 19.5 4.13077 19.2629 3.70881 18.841C3.28686 18.419 3.0498 17.8467 3.0498 17.25V6.75M22.5498 6.75C22.5498 6.15326 22.3128 5.58097 21.8908 5.15901C21.4688 4.73705 20.8965 4.5 20.2998 4.5H5.2998C4.70307 4.5 4.13077 4.73705 3.70881 5.15901C3.28686 5.58097 3.0498 6.15326 3.0498 6.75M22.5498 6.75V6.993C22.5498 7.37715 22.4515 7.75491 22.2642 8.0903C22.0769 8.42569 21.8069 8.70754 21.4798 8.909L13.9798 13.524C13.625 13.7425 13.2165 13.8582 12.7998 13.8582C12.3831 13.8582 11.9746 13.7425 11.6198 13.524L4.1198 8.91C3.79273 8.70854 3.52267 8.42669 3.33537 8.0913C3.14807 7.75591 3.04976 7.37815 3.0498 6.994V6.75" stroke="white" stroke-width="1.5" stroke-linecap="round" stroke-linejoin="round"/>
</svg>
