<svg width="25" height="24" viewBox="0 0 25 24" fill="none" xmlns="http://www.w3.org/2000/svg">
<path d="M15.7998 10.5C15.7998 11.2956 15.4837 12.0587 14.9211 12.6213C14.3585 13.1839 13.5955 13.5 12.7998 13.5C12.0042 13.5 11.2411 13.1839 10.6785 12.6213C10.1159 12.0587 9.7998 11.2956 9.7998 10.5C9.7998 9.70435 10.1159 8.94129 10.6785 8.37868C11.2411 7.81607 12.0042 7.5 12.7998 7.5C13.5955 7.5 14.3585 7.81607 14.9211 8.37868C15.4837 8.94129 15.7998 9.70435 15.7998 10.5Z" stroke="white" stroke-width="1.5" stroke-linecap="round" stroke-linejoin="round"/>
<path d="M20.2998 10.5C20.2998 17.642 12.7998 21.75 12.7998 21.75C12.7998 21.75 5.2998 17.642 5.2998 10.5C5.2998 8.51088 6.08998 6.60322 7.4965 5.1967C8.90303 3.79018 10.8107 3 12.7998 3C14.7889 3 16.6966 3.79018 18.1031 5.1967C19.5096 6.60322 20.2998 8.51088 20.2998 10.5Z" stroke="white" stroke-width="1.5" stroke-linecap="round" stroke-linejoin="round"/>
</svg>
