<svg width="20" height="20" viewBox="0 0 20 20" fill="none" xmlns="http://www.w3.org/2000/svg">
<path d="M1.83583 8.21183C1.69504 8.10932 1.63484 7.92873 1.68597 7.76224L1.75258 7.55409C1.80127 7.38959 1.94766 7.27313 2.11889 7.26268L7.43874 6.83806L9.47843 1.93413C9.54685 1.76234 9.71858 1.65458 9.90302 1.6677H10.1195C10.2934 1.66401 10.4505 1.77098 10.5108 1.93413L12.5588 6.83806L17.8786 7.26268C18.0499 7.27313 18.1963 7.38959 18.245 7.55409L18.3116 7.76224C18.3682 7.92347 18.3184 8.10292 18.1867 8.21183L14.1739 11.6587L15.406 16.8291C15.4466 16.9946 15.3843 17.1683 15.2479 17.2704L15.0064 17.4036C14.8656 17.4988 14.681 17.4988 14.5402 17.4036L10.0113 14.656L5.45732 17.4286C5.3165 17.5238 5.13194 17.5238 4.99111 17.4286L4.80795 17.3037C4.67146 17.2017 4.60918 17.0279 4.64977 16.8624L5.84861 11.6587L1.83583 8.21183Z" fill="#FAAE4B"/>
</svg>
